G04 #@! TF.GenerationSoftware,KiCad,Pcbnew,(6.0.7)*
G04 #@! TF.CreationDate,2022-09-30T23:13:53-04:00*
G04 #@! TF.ProjectId,SH_controller_p,53485f63-6f6e-4747-926f-6c6c65725f70,rev?*
G04 #@! TF.SameCoordinates,Original*
G04 #@! TF.FileFunction,Copper,L2,Bot*
G04 #@! TF.FilePolarity,Positive*
%FSLAX46Y46*%
G04 Gerber Fmt 4.6, Leading zero omitted, Abs format (unit mm)*
G04 Created by KiCad (PCBNEW (6.0.7)) date 2022-09-30 23:13:53*
%MOMM*%
%LPD*%
G01*
G04 APERTURE LIST*
G04 #@! TA.AperFunction,ComponentPad*
%ADD10C,1.800000*%
G04 #@! TD*
G04 #@! TA.AperFunction,ComponentPad*
%ADD11C,1.450000*%
G04 #@! TD*
G04 #@! TA.AperFunction,ComponentPad*
%ADD12O,1.900000X1.200000*%
G04 #@! TD*
G04 #@! TA.AperFunction,ComponentPad*
%ADD13C,2.200000*%
G04 #@! TD*
G04 #@! TA.AperFunction,ViaPad*
%ADD14C,0.800000*%
G04 #@! TD*
G04 #@! TA.AperFunction,Conductor*
%ADD15C,0.250000*%
G04 #@! TD*
G04 APERTURE END LIST*
D10*
X153845000Y-63755000D03*
X156385000Y-63755000D03*
X153845000Y-61215000D03*
X156425000Y-61215000D03*
X153845000Y-58675000D03*
X156425000Y-58675000D03*
X153845000Y-56135000D03*
X156385000Y-56135000D03*
X153845000Y-53595000D03*
X156425000Y-53595000D03*
X153845000Y-51055000D03*
X156425000Y-51055000D03*
X153845000Y-48515000D03*
X156385000Y-48515000D03*
X153845000Y-45975000D03*
X156385000Y-45975000D03*
D11*
X78900000Y-59380000D03*
D12*
X76200000Y-53380000D03*
D11*
X78900000Y-54380000D03*
D12*
X76200000Y-60380000D03*
D13*
X101600000Y-79715000D03*
X107950000Y-82255000D03*
X81280000Y-79715000D03*
X87630000Y-82255000D03*
X121920000Y-79715000D03*
X128270000Y-82255000D03*
X142240000Y-79715000D03*
X148590000Y-82255000D03*
D14*
X135370000Y-64270000D03*
X130940000Y-64270000D03*
X129590000Y-70920000D03*
X126330000Y-58544500D03*
X128140000Y-72280000D03*
X127720000Y-59360000D03*
X126990000Y-71660000D03*
X126960000Y-60280000D03*
X124640000Y-41240000D03*
X123640000Y-55790000D03*
X113140000Y-40520000D03*
X123547500Y-60960000D03*
X94680000Y-44900000D03*
X100870000Y-56470000D03*
X105330000Y-56420000D03*
X98570000Y-62570000D03*
X94720000Y-63430000D03*
X108320000Y-64320000D03*
X92620000Y-41570000D03*
X96790000Y-57820000D03*
X141200000Y-55320000D03*
X93900000Y-53520000D03*
X94050000Y-41130000D03*
X142870000Y-45070000D03*
X100560000Y-42850000D03*
X151190000Y-42770000D03*
X94040000Y-39640000D03*
X104130000Y-66550000D03*
X89810000Y-60980000D03*
D15*
X130940000Y-64270000D02*
X135370000Y-64270000D01*
X127929805Y-58544500D02*
X126330000Y-58544500D01*
X129590000Y-70920000D02*
X129590000Y-60204695D01*
X129590000Y-60204695D02*
X127929805Y-58544500D01*
X128480000Y-71940000D02*
X128480000Y-61940000D01*
X128480000Y-60120000D02*
X127720000Y-59360000D01*
X128480000Y-61940000D02*
X128480000Y-60120000D01*
X128140000Y-72280000D02*
X128480000Y-71940000D01*
X126990000Y-60310000D02*
X126960000Y-60280000D01*
X126990000Y-71660000D02*
X126990000Y-60310000D01*
X123640000Y-42240000D02*
X123640000Y-55790000D01*
X113100000Y-40480000D02*
X113140000Y-40520000D01*
X124640000Y-41240000D02*
X123640000Y-42240000D01*
X112660000Y-40480000D02*
X113100000Y-40480000D01*
X94680000Y-44900000D02*
X108240000Y-44900000D01*
X108240000Y-44900000D02*
X112660000Y-40480000D01*
X105280000Y-56470000D02*
X105330000Y-56420000D01*
X100870000Y-56470000D02*
X105280000Y-56470000D01*
X94670000Y-63670000D02*
X94720000Y-63620000D01*
X92620000Y-41570000D02*
X92620000Y-61620000D01*
X94720000Y-63620000D02*
X94720000Y-63430000D01*
X98570000Y-62570000D02*
X100320000Y-64320000D01*
X92620000Y-61620000D02*
X94670000Y-63670000D01*
X100320000Y-64320000D02*
X108320000Y-64320000D01*
X138700000Y-57820000D02*
X141200000Y-55320000D01*
X96790000Y-57820000D02*
X138700000Y-57820000D01*
X94050000Y-41130000D02*
X93900000Y-41280000D01*
X93900000Y-41280000D02*
X93900000Y-53520000D01*
X100560000Y-42850000D02*
X103615000Y-39795000D01*
X137595000Y-39795000D02*
X142870000Y-45070000D01*
X103615000Y-39795000D02*
X137595000Y-39795000D01*
X95070000Y-38610000D02*
X147030000Y-38610000D01*
X147030000Y-38610000D02*
X151190000Y-42770000D01*
X94040000Y-39640000D02*
X95070000Y-38610000D01*
X95380000Y-66550000D02*
X104130000Y-66550000D01*
X89810000Y-60980000D02*
X95380000Y-66550000D01*
M02*
