G04 #@! TF.GenerationSoftware,KiCad,Pcbnew,(6.0.7)*
G04 #@! TF.CreationDate,2022-09-30T23:13:53-04:00*
G04 #@! TF.ProjectId,SH_controller_p,53485f63-6f6e-4747-926f-6c6c65725f70,rev?*
G04 #@! TF.SameCoordinates,Original*
G04 #@! TF.FileFunction,Soldermask,Top*
G04 #@! TF.FilePolarity,Negative*
%FSLAX46Y46*%
G04 Gerber Fmt 4.6, Leading zero omitted, Abs format (unit mm)*
G04 Created by KiCad (PCBNEW (6.0.7)) date 2022-09-30 23:13:53*
%MOMM*%
%LPD*%
G01*
G04 APERTURE LIST*
G04 Aperture macros list*
%AMRoundRect*
0 Rectangle with rounded corners*
0 $1 Rounding radius*
0 $2 $3 $4 $5 $6 $7 $8 $9 X,Y pos of 4 corners*
0 Add a 4 corners polygon primitive as box body*
4,1,4,$2,$3,$4,$5,$6,$7,$8,$9,$2,$3,0*
0 Add four circle primitives for the rounded corners*
1,1,$1+$1,$2,$3*
1,1,$1+$1,$4,$5*
1,1,$1+$1,$6,$7*
1,1,$1+$1,$8,$9*
0 Add four rect primitives between the rounded corners*
20,1,$1+$1,$2,$3,$4,$5,0*
20,1,$1+$1,$4,$5,$6,$7,0*
20,1,$1+$1,$6,$7,$8,$9,0*
20,1,$1+$1,$8,$9,$2,$3,0*%
G04 Aperture macros list end*
%ADD10R,2.000000X0.900000*%
%ADD11R,0.900000X2.000000*%
%ADD12R,5.000000X5.000000*%
%ADD13RoundRect,0.250000X-0.262500X-0.450000X0.262500X-0.450000X0.262500X0.450000X-0.262500X0.450000X0*%
%ADD14C,1.800000*%
%ADD15R,0.360000X0.250000*%
%ADD16RoundRect,0.250000X-0.475000X0.250000X-0.475000X-0.250000X0.475000X-0.250000X0.475000X0.250000X0*%
%ADD17R,1.000000X0.800000*%
%ADD18RoundRect,0.250000X-0.312500X-0.625000X0.312500X-0.625000X0.312500X0.625000X-0.312500X0.625000X0*%
%ADD19R,2.000000X1.500000*%
%ADD20R,2.000000X3.800000*%
%ADD21RoundRect,0.250000X0.375000X0.625000X-0.375000X0.625000X-0.375000X-0.625000X0.375000X-0.625000X0*%
%ADD22RoundRect,0.250000X0.650000X-0.325000X0.650000X0.325000X-0.650000X0.325000X-0.650000X-0.325000X0*%
%ADD23RoundRect,0.250000X0.475000X-0.250000X0.475000X0.250000X-0.475000X0.250000X-0.475000X-0.250000X0*%
%ADD24RoundRect,0.250000X-0.625000X0.312500X-0.625000X-0.312500X0.625000X-0.312500X0.625000X0.312500X0*%
%ADD25RoundRect,0.150000X-0.587500X-0.150000X0.587500X-0.150000X0.587500X0.150000X-0.587500X0.150000X0*%
%ADD26RoundRect,0.150000X0.150000X-0.587500X0.150000X0.587500X-0.150000X0.587500X-0.150000X-0.587500X0*%
%ADD27R,1.750000X0.450000*%
%ADD28RoundRect,0.250000X-0.325000X-0.650000X0.325000X-0.650000X0.325000X0.650000X-0.325000X0.650000X0*%
%ADD29RoundRect,0.250000X0.625000X-0.312500X0.625000X0.312500X-0.625000X0.312500X-0.625000X-0.312500X0*%
%ADD30R,1.350000X0.400000*%
%ADD31C,1.450000*%
%ADD32O,1.900000X1.200000*%
%ADD33R,1.900000X1.500000*%
%ADD34R,1.900000X1.200000*%
%ADD35RoundRect,0.250000X0.250000X0.475000X-0.250000X0.475000X-0.250000X-0.475000X0.250000X-0.475000X0*%
%ADD36C,4.000000*%
%ADD37C,2.200000*%
G04 APERTURE END LIST*
D10*
X131210000Y-40140000D03*
X131210000Y-41410000D03*
X131210000Y-42680000D03*
X131210000Y-43950000D03*
X131210000Y-45220000D03*
X131210000Y-46490000D03*
X131210000Y-47760000D03*
X131210000Y-49030000D03*
X131210000Y-50300000D03*
X131210000Y-51570000D03*
X131210000Y-52840000D03*
X131210000Y-54110000D03*
X131210000Y-55380000D03*
X131210000Y-56650000D03*
D11*
X133995000Y-57650000D03*
X135265000Y-57650000D03*
X136535000Y-57650000D03*
X137805000Y-57650000D03*
X139075000Y-57650000D03*
X140345000Y-57650000D03*
X141615000Y-57650000D03*
X142885000Y-57650000D03*
X144155000Y-57650000D03*
X145425000Y-57650000D03*
D10*
X148210000Y-56650000D03*
X148210000Y-55380000D03*
X148210000Y-54110000D03*
X148210000Y-52840000D03*
X148210000Y-51570000D03*
X148210000Y-50300000D03*
X148210000Y-49030000D03*
X148210000Y-47760000D03*
X148210000Y-46490000D03*
X148210000Y-45220000D03*
X148210000Y-43950000D03*
X148210000Y-42680000D03*
X148210000Y-41410000D03*
X148210000Y-40140000D03*
D12*
X138710000Y-47640000D03*
D13*
X123547500Y-60960000D03*
X125372500Y-60960000D03*
D14*
X153845000Y-63755000D03*
X156385000Y-63755000D03*
X153845000Y-61215000D03*
X156425000Y-61215000D03*
X153845000Y-58675000D03*
X156425000Y-58675000D03*
X153845000Y-56135000D03*
X156385000Y-56135000D03*
X153845000Y-53595000D03*
X156425000Y-53595000D03*
X153845000Y-51055000D03*
X156425000Y-51055000D03*
X153845000Y-48515000D03*
X156385000Y-48515000D03*
X153845000Y-45975000D03*
X156385000Y-45975000D03*
D15*
X81732500Y-54670000D03*
X82572500Y-54670000D03*
D16*
X139700000Y-80330000D03*
X139700000Y-82230000D03*
D17*
X77700000Y-49050000D03*
X77700000Y-50950000D03*
D18*
X95617500Y-54930000D03*
X98542500Y-54930000D03*
D19*
X77190000Y-41190000D03*
X77190000Y-43490000D03*
D20*
X83490000Y-43490000D03*
D19*
X77190000Y-45790000D03*
D16*
X99060000Y-80330000D03*
X99060000Y-82230000D03*
X119380000Y-80330000D03*
X119380000Y-82230000D03*
D21*
X89140000Y-49510000D03*
X86340000Y-49510000D03*
D18*
X112837500Y-64130000D03*
X115762500Y-64130000D03*
D22*
X87650000Y-42465000D03*
X87650000Y-39515000D03*
D23*
X108630000Y-56430000D03*
X108630000Y-54530000D03*
D24*
X87430000Y-52487500D03*
X87430000Y-55412500D03*
D25*
X98342500Y-58840000D03*
X98342500Y-60740000D03*
X100217500Y-59790000D03*
D13*
X81647500Y-49410000D03*
X83472500Y-49410000D03*
D26*
X93090000Y-60977500D03*
X94990000Y-60977500D03*
X94040000Y-59102500D03*
D15*
X82440000Y-57310000D03*
X81600000Y-57310000D03*
D16*
X78740000Y-80330000D03*
X78740000Y-82230000D03*
D27*
X96880000Y-40495000D03*
X96880000Y-41145000D03*
X96880000Y-41795000D03*
X96880000Y-42445000D03*
X96880000Y-43095000D03*
X96880000Y-43745000D03*
X96880000Y-44395000D03*
X96880000Y-45045000D03*
X96880000Y-45695000D03*
X96880000Y-46345000D03*
X96880000Y-46995000D03*
X96880000Y-47645000D03*
X96880000Y-48295000D03*
X96880000Y-48945000D03*
X104080000Y-48945000D03*
X104080000Y-48295000D03*
X104080000Y-47645000D03*
X104080000Y-46995000D03*
X104080000Y-46345000D03*
X104080000Y-45695000D03*
X104080000Y-45045000D03*
X104080000Y-44395000D03*
X104080000Y-43745000D03*
X104080000Y-43095000D03*
X104080000Y-42445000D03*
X104080000Y-41795000D03*
X104080000Y-41145000D03*
X104080000Y-40495000D03*
D28*
X85955000Y-46060000D03*
X88905000Y-46060000D03*
D29*
X90230000Y-55352500D03*
X90230000Y-52427500D03*
D30*
X78900000Y-55580000D03*
X78900000Y-56230000D03*
X78900000Y-56880000D03*
X78900000Y-57530000D03*
X78900000Y-58180000D03*
D31*
X78900000Y-59380000D03*
D32*
X76200000Y-53380000D03*
D31*
X78900000Y-54380000D03*
D33*
X76200000Y-57880000D03*
D34*
X76200000Y-59780000D03*
X76200000Y-53980000D03*
D33*
X76200000Y-55880000D03*
D32*
X76200000Y-60380000D03*
D24*
X118520000Y-40247500D03*
X118520000Y-43172500D03*
D15*
X82457500Y-56220000D03*
X81617500Y-56220000D03*
D22*
X90610000Y-42445000D03*
X90610000Y-39495000D03*
D28*
X117905000Y-60960000D03*
X120855000Y-60960000D03*
D35*
X123280000Y-64300000D03*
X121380000Y-64300000D03*
D36*
X104140000Y-84795000D03*
D37*
X101600000Y-79715000D03*
X107950000Y-82255000D03*
D36*
X83820000Y-84795000D03*
D37*
X81280000Y-79715000D03*
X87630000Y-82255000D03*
D36*
X124460000Y-84795000D03*
D37*
X121920000Y-79715000D03*
X128270000Y-82255000D03*
D36*
X144780000Y-84795000D03*
D37*
X142240000Y-79715000D03*
X148590000Y-82255000D03*
M02*
