G04 #@! TF.GenerationSoftware,KiCad,Pcbnew,(6.0.7)*
G04 #@! TF.CreationDate,2022-09-30T23:13:53-04:00*
G04 #@! TF.ProjectId,SH_controller_p,53485f63-6f6e-4747-926f-6c6c65725f70,rev?*
G04 #@! TF.SameCoordinates,Original*
G04 #@! TF.FileFunction,Copper,L1,Top*
G04 #@! TF.FilePolarity,Positive*
%FSLAX46Y46*%
G04 Gerber Fmt 4.6, Leading zero omitted, Abs format (unit mm)*
G04 Created by KiCad (PCBNEW (6.0.7)) date 2022-09-30 23:13:53*
%MOMM*%
%LPD*%
G01*
G04 APERTURE LIST*
G04 Aperture macros list*
%AMRoundRect*
0 Rectangle with rounded corners*
0 $1 Rounding radius*
0 $2 $3 $4 $5 $6 $7 $8 $9 X,Y pos of 4 corners*
0 Add a 4 corners polygon primitive as box body*
4,1,4,$2,$3,$4,$5,$6,$7,$8,$9,$2,$3,0*
0 Add four circle primitives for the rounded corners*
1,1,$1+$1,$2,$3*
1,1,$1+$1,$4,$5*
1,1,$1+$1,$6,$7*
1,1,$1+$1,$8,$9*
0 Add four rect primitives between the rounded corners*
20,1,$1+$1,$2,$3,$4,$5,0*
20,1,$1+$1,$4,$5,$6,$7,0*
20,1,$1+$1,$6,$7,$8,$9,0*
20,1,$1+$1,$8,$9,$2,$3,0*%
G04 Aperture macros list end*
G04 #@! TA.AperFunction,SMDPad,CuDef*
%ADD10R,2.000000X0.900000*%
G04 #@! TD*
G04 #@! TA.AperFunction,SMDPad,CuDef*
%ADD11R,0.900000X2.000000*%
G04 #@! TD*
G04 #@! TA.AperFunction,SMDPad,CuDef*
%ADD12R,5.000000X5.000000*%
G04 #@! TD*
G04 #@! TA.AperFunction,SMDPad,CuDef*
%ADD13RoundRect,0.250000X-0.262500X-0.450000X0.262500X-0.450000X0.262500X0.450000X-0.262500X0.450000X0*%
G04 #@! TD*
G04 #@! TA.AperFunction,ComponentPad*
%ADD14C,1.800000*%
G04 #@! TD*
G04 #@! TA.AperFunction,SMDPad,CuDef*
%ADD15R,0.360000X0.250000*%
G04 #@! TD*
G04 #@! TA.AperFunction,SMDPad,CuDef*
%ADD16RoundRect,0.250000X-0.475000X0.250000X-0.475000X-0.250000X0.475000X-0.250000X0.475000X0.250000X0*%
G04 #@! TD*
G04 #@! TA.AperFunction,SMDPad,CuDef*
%ADD17R,1.000000X0.800000*%
G04 #@! TD*
G04 #@! TA.AperFunction,SMDPad,CuDef*
%ADD18RoundRect,0.250000X-0.312500X-0.625000X0.312500X-0.625000X0.312500X0.625000X-0.312500X0.625000X0*%
G04 #@! TD*
G04 #@! TA.AperFunction,SMDPad,CuDef*
%ADD19R,2.000000X1.500000*%
G04 #@! TD*
G04 #@! TA.AperFunction,SMDPad,CuDef*
%ADD20R,2.000000X3.800000*%
G04 #@! TD*
G04 #@! TA.AperFunction,SMDPad,CuDef*
%ADD21RoundRect,0.250000X0.375000X0.625000X-0.375000X0.625000X-0.375000X-0.625000X0.375000X-0.625000X0*%
G04 #@! TD*
G04 #@! TA.AperFunction,SMDPad,CuDef*
%ADD22RoundRect,0.250000X0.650000X-0.325000X0.650000X0.325000X-0.650000X0.325000X-0.650000X-0.325000X0*%
G04 #@! TD*
G04 #@! TA.AperFunction,SMDPad,CuDef*
%ADD23RoundRect,0.250000X0.475000X-0.250000X0.475000X0.250000X-0.475000X0.250000X-0.475000X-0.250000X0*%
G04 #@! TD*
G04 #@! TA.AperFunction,SMDPad,CuDef*
%ADD24RoundRect,0.250000X-0.625000X0.312500X-0.625000X-0.312500X0.625000X-0.312500X0.625000X0.312500X0*%
G04 #@! TD*
G04 #@! TA.AperFunction,SMDPad,CuDef*
%ADD25RoundRect,0.150000X-0.587500X-0.150000X0.587500X-0.150000X0.587500X0.150000X-0.587500X0.150000X0*%
G04 #@! TD*
G04 #@! TA.AperFunction,SMDPad,CuDef*
%ADD26RoundRect,0.150000X0.150000X-0.587500X0.150000X0.587500X-0.150000X0.587500X-0.150000X-0.587500X0*%
G04 #@! TD*
G04 #@! TA.AperFunction,SMDPad,CuDef*
%ADD27R,1.750000X0.450000*%
G04 #@! TD*
G04 #@! TA.AperFunction,SMDPad,CuDef*
%ADD28RoundRect,0.250000X-0.325000X-0.650000X0.325000X-0.650000X0.325000X0.650000X-0.325000X0.650000X0*%
G04 #@! TD*
G04 #@! TA.AperFunction,SMDPad,CuDef*
%ADD29RoundRect,0.250000X0.625000X-0.312500X0.625000X0.312500X-0.625000X0.312500X-0.625000X-0.312500X0*%
G04 #@! TD*
G04 #@! TA.AperFunction,SMDPad,CuDef*
%ADD30R,1.350000X0.400000*%
G04 #@! TD*
G04 #@! TA.AperFunction,ComponentPad*
%ADD31C,1.450000*%
G04 #@! TD*
G04 #@! TA.AperFunction,ComponentPad*
%ADD32O,1.900000X1.200000*%
G04 #@! TD*
G04 #@! TA.AperFunction,SMDPad,CuDef*
%ADD33R,1.900000X1.500000*%
G04 #@! TD*
G04 #@! TA.AperFunction,SMDPad,CuDef*
%ADD34R,1.900000X1.200000*%
G04 #@! TD*
G04 #@! TA.AperFunction,SMDPad,CuDef*
%ADD35RoundRect,0.250000X0.250000X0.475000X-0.250000X0.475000X-0.250000X-0.475000X0.250000X-0.475000X0*%
G04 #@! TD*
G04 #@! TA.AperFunction,ComponentPad*
%ADD36C,2.200000*%
G04 #@! TD*
G04 #@! TA.AperFunction,ViaPad*
%ADD37C,0.800000*%
G04 #@! TD*
G04 #@! TA.AperFunction,Conductor*
%ADD38C,0.250000*%
G04 #@! TD*
G04 #@! TA.AperFunction,Conductor*
%ADD39C,0.200000*%
G04 #@! TD*
G04 APERTURE END LIST*
D10*
X131210000Y-40140000D03*
X131210000Y-41410000D03*
X131210000Y-42680000D03*
X131210000Y-43950000D03*
X131210000Y-45220000D03*
X131210000Y-46490000D03*
X131210000Y-47760000D03*
X131210000Y-49030000D03*
X131210000Y-50300000D03*
X131210000Y-51570000D03*
X131210000Y-52840000D03*
X131210000Y-54110000D03*
X131210000Y-55380000D03*
X131210000Y-56650000D03*
D11*
X133995000Y-57650000D03*
X135265000Y-57650000D03*
X136535000Y-57650000D03*
X137805000Y-57650000D03*
X139075000Y-57650000D03*
X140345000Y-57650000D03*
X141615000Y-57650000D03*
X142885000Y-57650000D03*
X144155000Y-57650000D03*
X145425000Y-57650000D03*
D10*
X148210000Y-56650000D03*
X148210000Y-55380000D03*
X148210000Y-54110000D03*
X148210000Y-52840000D03*
X148210000Y-51570000D03*
X148210000Y-50300000D03*
X148210000Y-49030000D03*
X148210000Y-47760000D03*
X148210000Y-46490000D03*
X148210000Y-45220000D03*
X148210000Y-43950000D03*
X148210000Y-42680000D03*
X148210000Y-41410000D03*
X148210000Y-40140000D03*
D12*
X138710000Y-47640000D03*
D13*
X123547500Y-60960000D03*
X125372500Y-60960000D03*
D14*
X153845000Y-63755000D03*
X156385000Y-63755000D03*
X153845000Y-61215000D03*
X156425000Y-61215000D03*
X153845000Y-58675000D03*
X156425000Y-58675000D03*
X153845000Y-56135000D03*
X156385000Y-56135000D03*
X153845000Y-53595000D03*
X156425000Y-53595000D03*
X153845000Y-51055000D03*
X156425000Y-51055000D03*
X153845000Y-48515000D03*
X156385000Y-48515000D03*
X153845000Y-45975000D03*
X156385000Y-45975000D03*
D15*
X81732500Y-54670000D03*
X82572500Y-54670000D03*
D16*
X139700000Y-80330000D03*
X139700000Y-82230000D03*
D17*
X77700000Y-49050000D03*
X77700000Y-50950000D03*
D18*
X95617500Y-54930000D03*
X98542500Y-54930000D03*
D19*
X77190000Y-41190000D03*
X77190000Y-43490000D03*
D20*
X83490000Y-43490000D03*
D19*
X77190000Y-45790000D03*
D16*
X99060000Y-80330000D03*
X99060000Y-82230000D03*
X119380000Y-80330000D03*
X119380000Y-82230000D03*
D21*
X89140000Y-49510000D03*
X86340000Y-49510000D03*
D18*
X112837500Y-64130000D03*
X115762500Y-64130000D03*
D22*
X87650000Y-42465000D03*
X87650000Y-39515000D03*
D23*
X108630000Y-56430000D03*
X108630000Y-54530000D03*
D24*
X87430000Y-52487500D03*
X87430000Y-55412500D03*
D25*
X98342500Y-58840000D03*
X98342500Y-60740000D03*
X100217500Y-59790000D03*
D13*
X81647500Y-49410000D03*
X83472500Y-49410000D03*
D26*
X93090000Y-60977500D03*
X94990000Y-60977500D03*
X94040000Y-59102500D03*
D15*
X82440000Y-57310000D03*
X81600000Y-57310000D03*
D16*
X78740000Y-80330000D03*
X78740000Y-82230000D03*
D27*
X96880000Y-40495000D03*
X96880000Y-41145000D03*
X96880000Y-41795000D03*
X96880000Y-42445000D03*
X96880000Y-43095000D03*
X96880000Y-43745000D03*
X96880000Y-44395000D03*
X96880000Y-45045000D03*
X96880000Y-45695000D03*
X96880000Y-46345000D03*
X96880000Y-46995000D03*
X96880000Y-47645000D03*
X96880000Y-48295000D03*
X96880000Y-48945000D03*
X104080000Y-48945000D03*
X104080000Y-48295000D03*
X104080000Y-47645000D03*
X104080000Y-46995000D03*
X104080000Y-46345000D03*
X104080000Y-45695000D03*
X104080000Y-45045000D03*
X104080000Y-44395000D03*
X104080000Y-43745000D03*
X104080000Y-43095000D03*
X104080000Y-42445000D03*
X104080000Y-41795000D03*
X104080000Y-41145000D03*
X104080000Y-40495000D03*
D28*
X85955000Y-46060000D03*
X88905000Y-46060000D03*
D29*
X90230000Y-55352500D03*
X90230000Y-52427500D03*
D30*
X78900000Y-55580000D03*
X78900000Y-56230000D03*
X78900000Y-56880000D03*
X78900000Y-57530000D03*
X78900000Y-58180000D03*
D31*
X78900000Y-59380000D03*
D32*
X76200000Y-53380000D03*
D31*
X78900000Y-54380000D03*
D33*
X76200000Y-57880000D03*
D34*
X76200000Y-59780000D03*
X76200000Y-53980000D03*
D33*
X76200000Y-55880000D03*
D32*
X76200000Y-60380000D03*
D24*
X118520000Y-40247500D03*
X118520000Y-43172500D03*
D15*
X82457500Y-56220000D03*
X81617500Y-56220000D03*
D22*
X90610000Y-42445000D03*
X90610000Y-39495000D03*
D28*
X117905000Y-60960000D03*
X120855000Y-60960000D03*
D35*
X123280000Y-64300000D03*
X121380000Y-64300000D03*
D36*
X101600000Y-79715000D03*
X107950000Y-82255000D03*
X81280000Y-79715000D03*
X87630000Y-82255000D03*
X121920000Y-79715000D03*
X128270000Y-82255000D03*
X142240000Y-79715000D03*
X148590000Y-82255000D03*
D37*
X135370000Y-64270000D03*
X130940000Y-64270000D03*
X129590000Y-70920000D03*
X126330000Y-58544500D03*
X128140000Y-72280000D03*
X127720000Y-59360000D03*
X126990000Y-71660000D03*
X126960000Y-60280000D03*
X124640000Y-41240000D03*
X123640000Y-55790000D03*
X113140000Y-40520000D03*
X123547500Y-60960000D03*
X94680000Y-44900000D03*
X100870000Y-56470000D03*
X105330000Y-56420000D03*
X98570000Y-62570000D03*
X94720000Y-63430000D03*
X108320000Y-64320000D03*
X92620000Y-41570000D03*
X96790000Y-57820000D03*
X141200000Y-55320000D03*
X93900000Y-53520000D03*
X94050000Y-41130000D03*
X142870000Y-45070000D03*
X100560000Y-42850000D03*
X151190000Y-42770000D03*
X94040000Y-39640000D03*
X104130000Y-66550000D03*
X89810000Y-60980000D03*
D38*
X155160000Y-64980000D02*
X156385000Y-63755000D01*
X136080000Y-64980000D02*
X155160000Y-64980000D01*
X135370000Y-64270000D02*
X136080000Y-64980000D01*
X123280000Y-64300000D02*
X130910000Y-64300000D01*
X130910000Y-64300000D02*
X130940000Y-64270000D01*
X149060000Y-51570000D02*
X148210000Y-51570000D01*
X150290000Y-50340000D02*
X149060000Y-51570000D01*
X150290000Y-46110000D02*
X150290000Y-50340000D01*
X152170000Y-44230000D02*
X150290000Y-46110000D01*
X157312866Y-44230000D02*
X152170000Y-44230000D01*
X157610000Y-44527134D02*
X157312866Y-44230000D01*
X157610000Y-49870000D02*
X157610000Y-44527134D01*
X156425000Y-51055000D02*
X157610000Y-49870000D01*
X150370000Y-54110000D02*
X148210000Y-54110000D01*
X151210000Y-53270000D02*
X150370000Y-54110000D01*
X151210000Y-49400000D02*
X151210000Y-53270000D01*
X153320000Y-47290000D02*
X151210000Y-49400000D01*
X156385000Y-48515000D02*
X155160000Y-47290000D01*
X155160000Y-47290000D02*
X153320000Y-47290000D01*
X150740000Y-51990000D02*
X149890000Y-52840000D01*
X150740000Y-47285000D02*
X150740000Y-51990000D01*
X149890000Y-52840000D02*
X148210000Y-52840000D01*
X155160000Y-44750000D02*
X153275000Y-44750000D01*
X153275000Y-44750000D02*
X150740000Y-47285000D01*
X156385000Y-45975000D02*
X155160000Y-44750000D01*
X142240000Y-79715000D02*
X133210000Y-70685000D01*
X132030000Y-48895000D02*
X131200000Y-48895000D01*
X133210000Y-50075000D02*
X132030000Y-48895000D01*
X133210000Y-70685000D02*
X133210000Y-50075000D01*
X142240000Y-79715000D02*
X142240000Y-78740000D01*
X139700000Y-80330000D02*
X140315000Y-79715000D01*
X140315000Y-79715000D02*
X142240000Y-79715000D01*
X119995000Y-79715000D02*
X121920000Y-79715000D01*
X126330000Y-53785000D02*
X129950000Y-50165000D01*
X121920000Y-79715000D02*
X129490000Y-72145000D01*
X129490000Y-71020000D02*
X129590000Y-70920000D01*
X129490000Y-71160000D02*
X129490000Y-71020000D01*
X126330000Y-58544500D02*
X126330000Y-53785000D01*
X129490000Y-72145000D02*
X129490000Y-71160000D01*
X119380000Y-80330000D02*
X119995000Y-79715000D01*
X129950000Y-50165000D02*
X131200000Y-50165000D01*
X99675000Y-79715000D02*
X101600000Y-79715000D01*
X128035000Y-72385000D02*
X128140000Y-72280000D01*
X130370000Y-51435000D02*
X131200000Y-51435000D01*
X127720000Y-54085000D02*
X130370000Y-51435000D01*
X108930000Y-72385000D02*
X128035000Y-72385000D01*
X101600000Y-79715000D02*
X108930000Y-72385000D01*
X99060000Y-80330000D02*
X99675000Y-79715000D01*
X127720000Y-59360000D02*
X127720000Y-54085000D01*
X81280000Y-75890000D02*
X84410000Y-72760000D01*
X81280000Y-79715000D02*
X81280000Y-75890000D01*
X85510000Y-71660000D02*
X126990000Y-71660000D01*
X126960000Y-60280000D02*
X129535000Y-60280000D01*
X79355000Y-79715000D02*
X81280000Y-79715000D01*
X129535000Y-53725000D02*
X130555000Y-52705000D01*
X129535000Y-60280000D02*
X129535000Y-53725000D01*
X78740000Y-80330000D02*
X79355000Y-79715000D01*
X130555000Y-52705000D02*
X131200000Y-52705000D01*
X84410000Y-72760000D02*
X85510000Y-71660000D01*
X123547500Y-60960000D02*
X123547500Y-64032500D01*
X94725000Y-42445000D02*
X96880000Y-42445000D01*
X124675000Y-41275000D02*
X124640000Y-41240000D01*
X123547500Y-55882500D02*
X123547500Y-60960000D01*
X123647500Y-40247500D02*
X118520000Y-40247500D01*
X123547500Y-64032500D02*
X123280000Y-64300000D01*
X123640000Y-55790000D02*
X123547500Y-55882500D01*
X90610000Y-42445000D02*
X94725000Y-42445000D01*
X113140000Y-40520000D02*
X118247500Y-40520000D01*
X83490000Y-43490000D02*
X86625000Y-43490000D01*
X118247500Y-40520000D02*
X118520000Y-40247500D01*
X94725000Y-44855000D02*
X94680000Y-44900000D01*
X86625000Y-43490000D02*
X87650000Y-42465000D01*
X124640000Y-41240000D02*
X123647500Y-40247500D01*
X131200000Y-41275000D02*
X124675000Y-41275000D01*
X94725000Y-42445000D02*
X94725000Y-44855000D01*
X118520000Y-43172500D02*
X121642500Y-43172500D01*
X108630000Y-56430000D02*
X121765000Y-43295000D01*
X108620000Y-56420000D02*
X108630000Y-56430000D01*
X122515000Y-42545000D02*
X131200000Y-42545000D01*
X121765000Y-43295000D02*
X122515000Y-42545000D01*
X105330000Y-56420000D02*
X108620000Y-56420000D01*
X121642500Y-43172500D02*
X121765000Y-43295000D01*
X100217500Y-59790000D02*
X100870000Y-59137500D01*
X100870000Y-59137500D02*
X100870000Y-56470000D01*
X77700000Y-49050000D02*
X81287500Y-49050000D01*
X81287500Y-49050000D02*
X81647500Y-49410000D01*
X82850000Y-47360000D02*
X81647500Y-48562500D01*
X77700000Y-49050000D02*
X77700000Y-46300000D01*
X84655000Y-47360000D02*
X82850000Y-47360000D01*
X77700000Y-46300000D02*
X77190000Y-45790000D01*
X81647500Y-48562500D02*
X81647500Y-49410000D01*
X85955000Y-46060000D02*
X84655000Y-47360000D01*
X81732500Y-54670000D02*
X81732500Y-52022500D01*
X78900000Y-55580000D02*
X80822500Y-55580000D01*
X81732500Y-52022500D02*
X81700000Y-51990000D01*
X81700000Y-51990000D02*
X80660000Y-50950000D01*
X81700000Y-51990000D02*
X86932500Y-51990000D01*
X80660000Y-50950000D02*
X77700000Y-50950000D01*
X86932500Y-51990000D02*
X87430000Y-52487500D01*
X80822500Y-55580000D02*
X81732500Y-54670000D01*
D39*
X78900000Y-56880000D02*
X81170000Y-56880000D01*
X104080000Y-59810000D02*
X104080000Y-48945000D01*
X88820001Y-64530000D02*
X99360000Y-64530000D01*
X81170000Y-56880000D02*
X81600000Y-57310000D01*
X81600000Y-57310000D02*
X88820001Y-64530000D01*
X99360000Y-64530000D02*
X104080000Y-59810000D01*
X103030000Y-48295000D02*
X104080000Y-48295000D01*
X99180000Y-64130000D02*
X101730000Y-61580000D01*
X88985686Y-64130000D02*
X99180000Y-64130000D01*
X101730000Y-49595000D02*
X103030000Y-48295000D01*
X81607500Y-56230000D02*
X81617500Y-56220000D01*
X82377500Y-55460000D02*
X83440000Y-55460000D01*
X83440000Y-58584314D02*
X88985686Y-64130000D01*
X78900000Y-56230000D02*
X81607500Y-56230000D01*
X101730000Y-61580000D02*
X101730000Y-49595000D01*
X81617500Y-56220000D02*
X82377500Y-55460000D01*
X83440000Y-55460000D02*
X83440000Y-58584314D01*
D38*
X86240000Y-49410000D02*
X86340000Y-49510000D01*
X83472500Y-49410000D02*
X86240000Y-49410000D01*
X112647500Y-64320000D02*
X112837500Y-64130000D01*
X108320000Y-64320000D02*
X112647500Y-64320000D01*
X98342500Y-62342500D02*
X98570000Y-62570000D01*
X96880000Y-41795000D02*
X96820000Y-41855000D01*
X92905000Y-41855000D02*
X92620000Y-41570000D01*
X95652500Y-63430000D02*
X98342500Y-60740000D01*
X98342500Y-60740000D02*
X98342500Y-62342500D01*
X94720000Y-63430000D02*
X95652500Y-63430000D01*
X96820000Y-41855000D02*
X92905000Y-41855000D01*
X145755000Y-55320000D02*
X146950000Y-56515000D01*
X146950000Y-56515000D02*
X148200000Y-56515000D01*
X141200000Y-55320000D02*
X145755000Y-55320000D01*
X96790000Y-59177500D02*
X96790000Y-57820000D01*
X94990000Y-60977500D02*
X96790000Y-59177500D01*
X93900000Y-53520000D02*
X94207500Y-53520000D01*
X94207500Y-53520000D02*
X95617500Y-54930000D01*
X96880000Y-41145000D02*
X94065000Y-41145000D01*
X95617500Y-54930000D02*
X95617500Y-57525000D01*
X95617500Y-57525000D02*
X94040000Y-59102500D01*
X94065000Y-41145000D02*
X94050000Y-41130000D01*
X122275305Y-53400000D02*
X113198173Y-53400000D01*
X125372500Y-60960000D02*
X125372500Y-56497195D01*
X105280000Y-49495000D02*
X105280000Y-46445000D01*
X104505000Y-56620305D02*
X104505000Y-50270000D01*
X105180000Y-46345000D02*
X104080000Y-46345000D01*
X109343173Y-57255000D02*
X105139695Y-57255000D01*
X105280000Y-46445000D02*
X105180000Y-46345000D01*
X105139695Y-57255000D02*
X104505000Y-56620305D01*
X104505000Y-50270000D02*
X105280000Y-49495000D01*
X113198173Y-53400000D02*
X109343173Y-57255000D01*
X125372500Y-56497195D02*
X122275305Y-53400000D01*
X87490000Y-55352500D02*
X90230000Y-55352500D01*
X87430000Y-55412500D02*
X87490000Y-55352500D01*
X100315000Y-43095000D02*
X100560000Y-42850000D01*
X142885000Y-45085000D02*
X148200000Y-45085000D01*
X142870000Y-45070000D02*
X142885000Y-45085000D01*
X96880000Y-43095000D02*
X100315000Y-43095000D01*
X151190000Y-42770000D02*
X150145000Y-43815000D01*
X96880000Y-40495000D02*
X94895000Y-40495000D01*
X94895000Y-40495000D02*
X94040000Y-39640000D01*
X150145000Y-43815000D02*
X148200000Y-43815000D01*
X98542500Y-58640000D02*
X98342500Y-58840000D01*
X98542500Y-54930000D02*
X98542500Y-58640000D01*
X104130000Y-66550000D02*
X113342500Y-66550000D01*
X113342500Y-66550000D02*
X115762500Y-64130000D01*
X93087500Y-60980000D02*
X89810000Y-60980000D01*
X93090000Y-60977500D02*
X93087500Y-60980000D01*
M02*
