G04 #@! TF.GenerationSoftware,KiCad,Pcbnew,(6.0.7)*
G04 #@! TF.CreationDate,2022-09-30T23:13:53-04:00*
G04 #@! TF.ProjectId,SH_controller_p,53485f63-6f6e-4747-926f-6c6c65725f70,rev?*
G04 #@! TF.SameCoordinates,Original*
G04 #@! TF.FileFunction,Legend,Top*
G04 #@! TF.FilePolarity,Positive*
%FSLAX46Y46*%
G04 Gerber Fmt 4.6, Leading zero omitted, Abs format (unit mm)*
G04 Created by KiCad (PCBNEW (6.0.7)) date 2022-09-30 23:13:53*
%MOMM*%
%LPD*%
G01*
G04 APERTURE LIST*
G04 Aperture macros list*
%AMRoundRect*
0 Rectangle with rounded corners*
0 $1 Rounding radius*
0 $2 $3 $4 $5 $6 $7 $8 $9 X,Y pos of 4 corners*
0 Add a 4 corners polygon primitive as box body*
4,1,4,$2,$3,$4,$5,$6,$7,$8,$9,$2,$3,0*
0 Add four circle primitives for the rounded corners*
1,1,$1+$1,$2,$3*
1,1,$1+$1,$4,$5*
1,1,$1+$1,$6,$7*
1,1,$1+$1,$8,$9*
0 Add four rect primitives between the rounded corners*
20,1,$1+$1,$2,$3,$4,$5,0*
20,1,$1+$1,$4,$5,$6,$7,0*
20,1,$1+$1,$6,$7,$8,$9,0*
20,1,$1+$1,$8,$9,$2,$3,0*%
G04 Aperture macros list end*
%ADD10C,0.200000*%
%ADD11C,0.300000*%
%ADD12C,0.150000*%
%ADD13C,0.120000*%
%ADD14R,2.000000X0.900000*%
%ADD15R,0.900000X2.000000*%
%ADD16R,5.000000X5.000000*%
%ADD17RoundRect,0.250000X-0.262500X-0.450000X0.262500X-0.450000X0.262500X0.450000X-0.262500X0.450000X0*%
%ADD18C,1.800000*%
%ADD19R,0.360000X0.250000*%
%ADD20RoundRect,0.250000X-0.475000X0.250000X-0.475000X-0.250000X0.475000X-0.250000X0.475000X0.250000X0*%
%ADD21R,1.000000X0.800000*%
%ADD22RoundRect,0.250000X-0.312500X-0.625000X0.312500X-0.625000X0.312500X0.625000X-0.312500X0.625000X0*%
%ADD23R,2.000000X1.500000*%
%ADD24R,2.000000X3.800000*%
%ADD25RoundRect,0.250000X0.375000X0.625000X-0.375000X0.625000X-0.375000X-0.625000X0.375000X-0.625000X0*%
%ADD26RoundRect,0.250000X0.650000X-0.325000X0.650000X0.325000X-0.650000X0.325000X-0.650000X-0.325000X0*%
%ADD27RoundRect,0.250000X0.475000X-0.250000X0.475000X0.250000X-0.475000X0.250000X-0.475000X-0.250000X0*%
%ADD28RoundRect,0.250000X-0.625000X0.312500X-0.625000X-0.312500X0.625000X-0.312500X0.625000X0.312500X0*%
%ADD29RoundRect,0.150000X-0.587500X-0.150000X0.587500X-0.150000X0.587500X0.150000X-0.587500X0.150000X0*%
%ADD30RoundRect,0.150000X0.150000X-0.587500X0.150000X0.587500X-0.150000X0.587500X-0.150000X-0.587500X0*%
%ADD31R,1.750000X0.450000*%
%ADD32RoundRect,0.250000X-0.325000X-0.650000X0.325000X-0.650000X0.325000X0.650000X-0.325000X0.650000X0*%
%ADD33RoundRect,0.250000X0.625000X-0.312500X0.625000X0.312500X-0.625000X0.312500X-0.625000X-0.312500X0*%
%ADD34R,1.350000X0.400000*%
%ADD35C,1.450000*%
%ADD36O,1.900000X1.200000*%
%ADD37R,1.900000X1.500000*%
%ADD38R,1.900000X1.200000*%
%ADD39RoundRect,0.250000X0.250000X0.475000X-0.250000X0.475000X-0.250000X-0.475000X0.250000X-0.475000X0*%
%ADD40C,4.000000*%
%ADD41C,2.200000*%
G04 APERTURE END LIST*
D10*
X164000000Y-113000000D02*
X198000000Y-113000000D01*
X198000000Y-113000000D02*
X198000000Y-146000000D01*
X198000000Y-146000000D02*
X164000000Y-146000000D01*
X164000000Y-146000000D02*
X164000000Y-113000000D01*
X170790000Y-74520000D02*
X233790000Y-74520000D01*
X233790000Y-74520000D02*
X233790000Y-110520000D01*
X233790000Y-110520000D02*
X170790000Y-110520000D01*
X170790000Y-110520000D02*
X170790000Y-74520000D01*
D11*
X171821428Y-148607142D02*
X171678571Y-148678571D01*
X171392857Y-148678571D01*
X171250000Y-148607142D01*
X171178571Y-148535714D01*
X171107142Y-148392857D01*
X171107142Y-147964285D01*
X171178571Y-147821428D01*
X171250000Y-147750000D01*
X171392857Y-147678571D01*
X171678571Y-147678571D01*
X171821428Y-147750000D01*
X172464285Y-148678571D02*
X172464285Y-147178571D01*
X173107142Y-148678571D02*
X173107142Y-147892857D01*
X173035714Y-147750000D01*
X172892857Y-147678571D01*
X172678571Y-147678571D01*
X172535714Y-147750000D01*
X172464285Y-147821428D01*
X174464285Y-148678571D02*
X174464285Y-147892857D01*
X174392857Y-147750000D01*
X174250000Y-147678571D01*
X173964285Y-147678571D01*
X173821428Y-147750000D01*
X174464285Y-148607142D02*
X174321428Y-148678571D01*
X173964285Y-148678571D01*
X173821428Y-148607142D01*
X173750000Y-148464285D01*
X173750000Y-148321428D01*
X173821428Y-148178571D01*
X173964285Y-148107142D01*
X174321428Y-148107142D01*
X174464285Y-148035714D01*
X175178571Y-148678571D02*
X175178571Y-147678571D01*
X175178571Y-147964285D02*
X175250000Y-147821428D01*
X175321428Y-147750000D01*
X175464285Y-147678571D01*
X175607142Y-147678571D01*
X176750000Y-147678571D02*
X176750000Y-148892857D01*
X176678571Y-149035714D01*
X176607142Y-149107142D01*
X176464285Y-149178571D01*
X176250000Y-149178571D01*
X176107142Y-149107142D01*
X176750000Y-148607142D02*
X176607142Y-148678571D01*
X176321428Y-148678571D01*
X176178571Y-148607142D01*
X176107142Y-148535714D01*
X176035714Y-148392857D01*
X176035714Y-147964285D01*
X176107142Y-147821428D01*
X176178571Y-147750000D01*
X176321428Y-147678571D01*
X176607142Y-147678571D01*
X176750000Y-147750000D01*
X178035714Y-148607142D02*
X177892857Y-148678571D01*
X177607142Y-148678571D01*
X177464285Y-148607142D01*
X177392857Y-148464285D01*
X177392857Y-147892857D01*
X177464285Y-147750000D01*
X177607142Y-147678571D01*
X177892857Y-147678571D01*
X178035714Y-147750000D01*
X178107142Y-147892857D01*
X178107142Y-148035714D01*
X177392857Y-148178571D01*
X178750000Y-148678571D02*
X178750000Y-147678571D01*
X178750000Y-147964285D02*
X178821428Y-147821428D01*
X178892857Y-147750000D01*
X179035714Y-147678571D01*
X179178571Y-147678571D01*
X181464285Y-148607142D02*
X181321428Y-148678571D01*
X181035714Y-148678571D01*
X180892857Y-148607142D01*
X180821428Y-148535714D01*
X180750000Y-148392857D01*
X180750000Y-147964285D01*
X180821428Y-147821428D01*
X180892857Y-147750000D01*
X181035714Y-147678571D01*
X181321428Y-147678571D01*
X181464285Y-147750000D01*
X182107142Y-148678571D02*
X182107142Y-147178571D01*
X182750000Y-148678571D02*
X182750000Y-147892857D01*
X182678571Y-147750000D01*
X182535714Y-147678571D01*
X182321428Y-147678571D01*
X182178571Y-147750000D01*
X182107142Y-147821428D01*
X183464285Y-148678571D02*
X183464285Y-147678571D01*
X183464285Y-147178571D02*
X183392857Y-147250000D01*
X183464285Y-147321428D01*
X183535714Y-147250000D01*
X183464285Y-147178571D01*
X183464285Y-147321428D01*
X184178571Y-147678571D02*
X184178571Y-149178571D01*
X184178571Y-147750000D02*
X184321428Y-147678571D01*
X184607142Y-147678571D01*
X184750000Y-147750000D01*
X184821428Y-147821428D01*
X184892857Y-147964285D01*
X184892857Y-148392857D01*
X184821428Y-148535714D01*
X184750000Y-148607142D01*
X184607142Y-148678571D01*
X184321428Y-148678571D01*
X184178571Y-148607142D01*
X205894285Y-112768571D02*
X205894285Y-111268571D01*
X205894285Y-111840000D02*
X206037142Y-111768571D01*
X206322857Y-111768571D01*
X206465714Y-111840000D01*
X206537142Y-111911428D01*
X206608571Y-112054285D01*
X206608571Y-112482857D01*
X206537142Y-112625714D01*
X206465714Y-112697142D01*
X206322857Y-112768571D01*
X206037142Y-112768571D01*
X205894285Y-112697142D01*
X207894285Y-112768571D02*
X207894285Y-111982857D01*
X207822857Y-111840000D01*
X207680000Y-111768571D01*
X207394285Y-111768571D01*
X207251428Y-111840000D01*
X207894285Y-112697142D02*
X207751428Y-112768571D01*
X207394285Y-112768571D01*
X207251428Y-112697142D01*
X207180000Y-112554285D01*
X207180000Y-112411428D01*
X207251428Y-112268571D01*
X207394285Y-112197142D01*
X207751428Y-112197142D01*
X207894285Y-112125714D01*
X208394285Y-111768571D02*
X208965714Y-111768571D01*
X208608571Y-111268571D02*
X208608571Y-112554285D01*
X208680000Y-112697142D01*
X208822857Y-112768571D01*
X208965714Y-112768571D01*
X209251428Y-111768571D02*
X209822857Y-111768571D01*
X209465714Y-111268571D02*
X209465714Y-112554285D01*
X209537142Y-112697142D01*
X209680000Y-112768571D01*
X209822857Y-112768571D01*
X210894285Y-112697142D02*
X210751428Y-112768571D01*
X210465714Y-112768571D01*
X210322857Y-112697142D01*
X210251428Y-112554285D01*
X210251428Y-111982857D01*
X210322857Y-111840000D01*
X210465714Y-111768571D01*
X210751428Y-111768571D01*
X210894285Y-111840000D01*
X210965714Y-111982857D01*
X210965714Y-112125714D01*
X210251428Y-112268571D01*
X211608571Y-112768571D02*
X211608571Y-111768571D01*
X211608571Y-112054285D02*
X211680000Y-111911428D01*
X211751428Y-111840000D01*
X211894285Y-111768571D01*
X212037142Y-111768571D01*
X212394285Y-111768571D02*
X212751428Y-112768571D01*
X213108571Y-111768571D02*
X212751428Y-112768571D01*
X212608571Y-113125714D01*
X212537142Y-113197142D01*
X212394285Y-113268571D01*
D12*
X128762380Y-57661904D02*
X129571904Y-57661904D01*
X129667142Y-57614285D01*
X129714761Y-57566666D01*
X129762380Y-57471428D01*
X129762380Y-57280952D01*
X129714761Y-57185714D01*
X129667142Y-57138095D01*
X129571904Y-57090476D01*
X128762380Y-57090476D01*
X129762380Y-56090476D02*
X129762380Y-56661904D01*
X129762380Y-56376190D02*
X128762380Y-56376190D01*
X128905238Y-56471428D01*
X129000476Y-56566666D01*
X129048095Y-56661904D01*
X124293333Y-59762380D02*
X123960000Y-59286190D01*
X123721904Y-59762380D02*
X123721904Y-58762380D01*
X124102857Y-58762380D01*
X124198095Y-58810000D01*
X124245714Y-58857619D01*
X124293333Y-58952857D01*
X124293333Y-59095714D01*
X124245714Y-59190952D01*
X124198095Y-59238571D01*
X124102857Y-59286190D01*
X123721904Y-59286190D01*
X125150476Y-59095714D02*
X125150476Y-59762380D01*
X124912380Y-58714761D02*
X124674285Y-59429047D01*
X125293333Y-59429047D01*
X81414404Y-53922380D02*
X81414404Y-52922380D01*
X81652500Y-52922380D01*
X81795357Y-52970000D01*
X81890595Y-53065238D01*
X81938214Y-53160476D01*
X81985833Y-53350952D01*
X81985833Y-53493809D01*
X81938214Y-53684285D01*
X81890595Y-53779523D01*
X81795357Y-53874761D01*
X81652500Y-53922380D01*
X81414404Y-53922380D01*
X82938214Y-53922380D02*
X82366785Y-53922380D01*
X82652500Y-53922380D02*
X82652500Y-52922380D01*
X82557261Y-53065238D01*
X82462023Y-53160476D01*
X82366785Y-53208095D01*
X141737142Y-81446666D02*
X141784761Y-81494285D01*
X141832380Y-81637142D01*
X141832380Y-81732380D01*
X141784761Y-81875238D01*
X141689523Y-81970476D01*
X141594285Y-82018095D01*
X141403809Y-82065714D01*
X141260952Y-82065714D01*
X141070476Y-82018095D01*
X140975238Y-81970476D01*
X140880000Y-81875238D01*
X140832380Y-81732380D01*
X140832380Y-81637142D01*
X140880000Y-81494285D01*
X140927619Y-81446666D01*
X141832380Y-80494285D02*
X141832380Y-81065714D01*
X141832380Y-80780000D02*
X140832380Y-80780000D01*
X140975238Y-80875238D01*
X141070476Y-80970476D01*
X141118095Y-81065714D01*
X79852380Y-50738095D02*
X78852380Y-50738095D01*
X78852380Y-50500000D01*
X78900000Y-50357142D01*
X78995238Y-50261904D01*
X79090476Y-50214285D01*
X79280952Y-50166666D01*
X79423809Y-50166666D01*
X79614285Y-50214285D01*
X79709523Y-50261904D01*
X79804761Y-50357142D01*
X79852380Y-50500000D01*
X79852380Y-50738095D01*
X78947619Y-49785714D02*
X78900000Y-49738095D01*
X78852380Y-49642857D01*
X78852380Y-49404761D01*
X78900000Y-49309523D01*
X78947619Y-49261904D01*
X79042857Y-49214285D01*
X79138095Y-49214285D01*
X79280952Y-49261904D01*
X79852380Y-49833333D01*
X79852380Y-49214285D01*
X96913333Y-53562380D02*
X96580000Y-53086190D01*
X96341904Y-53562380D02*
X96341904Y-52562380D01*
X96722857Y-52562380D01*
X96818095Y-52610000D01*
X96865714Y-52657619D01*
X96913333Y-52752857D01*
X96913333Y-52895714D01*
X96865714Y-52990952D01*
X96818095Y-53038571D01*
X96722857Y-53086190D01*
X96341904Y-53086190D01*
X97294285Y-52657619D02*
X97341904Y-52610000D01*
X97437142Y-52562380D01*
X97675238Y-52562380D01*
X97770476Y-52610000D01*
X97818095Y-52657619D01*
X97865714Y-52752857D01*
X97865714Y-52848095D01*
X97818095Y-52990952D01*
X97246666Y-53562380D01*
X97865714Y-53562380D01*
X79578095Y-38442380D02*
X79578095Y-39251904D01*
X79625714Y-39347142D01*
X79673333Y-39394761D01*
X79768571Y-39442380D01*
X79959047Y-39442380D01*
X80054285Y-39394761D01*
X80101904Y-39347142D01*
X80149523Y-39251904D01*
X80149523Y-38442380D01*
X80530476Y-38442380D02*
X81149523Y-38442380D01*
X80816190Y-38823333D01*
X80959047Y-38823333D01*
X81054285Y-38870952D01*
X81101904Y-38918571D01*
X81149523Y-39013809D01*
X81149523Y-39251904D01*
X81101904Y-39347142D01*
X81054285Y-39394761D01*
X80959047Y-39442380D01*
X80673333Y-39442380D01*
X80578095Y-39394761D01*
X80530476Y-39347142D01*
X101097142Y-81446666D02*
X101144761Y-81494285D01*
X101192380Y-81637142D01*
X101192380Y-81732380D01*
X101144761Y-81875238D01*
X101049523Y-81970476D01*
X100954285Y-82018095D01*
X100763809Y-82065714D01*
X100620952Y-82065714D01*
X100430476Y-82018095D01*
X100335238Y-81970476D01*
X100240000Y-81875238D01*
X100192380Y-81732380D01*
X100192380Y-81637142D01*
X100240000Y-81494285D01*
X100287619Y-81446666D01*
X100192380Y-81113333D02*
X100192380Y-80494285D01*
X100573333Y-80827619D01*
X100573333Y-80684761D01*
X100620952Y-80589523D01*
X100668571Y-80541904D01*
X100763809Y-80494285D01*
X101001904Y-80494285D01*
X101097142Y-80541904D01*
X101144761Y-80589523D01*
X101192380Y-80684761D01*
X101192380Y-80970476D01*
X101144761Y-81065714D01*
X101097142Y-81113333D01*
X121417142Y-81446666D02*
X121464761Y-81494285D01*
X121512380Y-81637142D01*
X121512380Y-81732380D01*
X121464761Y-81875238D01*
X121369523Y-81970476D01*
X121274285Y-82018095D01*
X121083809Y-82065714D01*
X120940952Y-82065714D01*
X120750476Y-82018095D01*
X120655238Y-81970476D01*
X120560000Y-81875238D01*
X120512380Y-81732380D01*
X120512380Y-81637142D01*
X120560000Y-81494285D01*
X120607619Y-81446666D01*
X120607619Y-81065714D02*
X120560000Y-81018095D01*
X120512380Y-80922857D01*
X120512380Y-80684761D01*
X120560000Y-80589523D01*
X120607619Y-80541904D01*
X120702857Y-80494285D01*
X120798095Y-80494285D01*
X120940952Y-80541904D01*
X121512380Y-81113333D01*
X121512380Y-80494285D01*
X87001904Y-51782380D02*
X87001904Y-50782380D01*
X87240000Y-50782380D01*
X87382857Y-50830000D01*
X87478095Y-50925238D01*
X87525714Y-51020476D01*
X87573333Y-51210952D01*
X87573333Y-51353809D01*
X87525714Y-51544285D01*
X87478095Y-51639523D01*
X87382857Y-51734761D01*
X87240000Y-51782380D01*
X87001904Y-51782380D01*
X88478095Y-50782380D02*
X88001904Y-50782380D01*
X87954285Y-51258571D01*
X88001904Y-51210952D01*
X88097142Y-51163333D01*
X88335238Y-51163333D01*
X88430476Y-51210952D01*
X88478095Y-51258571D01*
X88525714Y-51353809D01*
X88525714Y-51591904D01*
X88478095Y-51687142D01*
X88430476Y-51734761D01*
X88335238Y-51782380D01*
X88097142Y-51782380D01*
X88001904Y-51734761D01*
X87954285Y-51687142D01*
X114133333Y-62762380D02*
X113800000Y-62286190D01*
X113561904Y-62762380D02*
X113561904Y-61762380D01*
X113942857Y-61762380D01*
X114038095Y-61810000D01*
X114085714Y-61857619D01*
X114133333Y-61952857D01*
X114133333Y-62095714D01*
X114085714Y-62190952D01*
X114038095Y-62238571D01*
X113942857Y-62286190D01*
X113561904Y-62286190D01*
X114466666Y-61762380D02*
X115085714Y-61762380D01*
X114752380Y-62143333D01*
X114895238Y-62143333D01*
X114990476Y-62190952D01*
X115038095Y-62238571D01*
X115085714Y-62333809D01*
X115085714Y-62571904D01*
X115038095Y-62667142D01*
X114990476Y-62714761D01*
X114895238Y-62762380D01*
X114609523Y-62762380D01*
X114514285Y-62714761D01*
X114466666Y-62667142D01*
X86157142Y-41632857D02*
X86204761Y-41680476D01*
X86252380Y-41823333D01*
X86252380Y-41918571D01*
X86204761Y-42061428D01*
X86109523Y-42156666D01*
X86014285Y-42204285D01*
X85823809Y-42251904D01*
X85680952Y-42251904D01*
X85490476Y-42204285D01*
X85395238Y-42156666D01*
X85300000Y-42061428D01*
X85252380Y-41918571D01*
X85252380Y-41823333D01*
X85300000Y-41680476D01*
X85347619Y-41632857D01*
X86252380Y-40680476D02*
X86252380Y-41251904D01*
X86252380Y-40966190D02*
X85252380Y-40966190D01*
X85395238Y-41061428D01*
X85490476Y-41156666D01*
X85538095Y-41251904D01*
X85252380Y-40061428D02*
X85252380Y-39966190D01*
X85300000Y-39870952D01*
X85347619Y-39823333D01*
X85442857Y-39775714D01*
X85633333Y-39728095D01*
X85871428Y-39728095D01*
X86061904Y-39775714D01*
X86157142Y-39823333D01*
X86204761Y-39870952D01*
X86252380Y-39966190D01*
X86252380Y-40061428D01*
X86204761Y-40156666D01*
X86157142Y-40204285D01*
X86061904Y-40251904D01*
X85871428Y-40299523D01*
X85633333Y-40299523D01*
X85442857Y-40251904D01*
X85347619Y-40204285D01*
X85300000Y-40156666D01*
X85252380Y-40061428D01*
X107307142Y-55646666D02*
X107354761Y-55694285D01*
X107402380Y-55837142D01*
X107402380Y-55932380D01*
X107354761Y-56075238D01*
X107259523Y-56170476D01*
X107164285Y-56218095D01*
X106973809Y-56265714D01*
X106830952Y-56265714D01*
X106640476Y-56218095D01*
X106545238Y-56170476D01*
X106450000Y-56075238D01*
X106402380Y-55932380D01*
X106402380Y-55837142D01*
X106450000Y-55694285D01*
X106497619Y-55646666D01*
X106402380Y-54789523D02*
X106402380Y-54980000D01*
X106450000Y-55075238D01*
X106497619Y-55122857D01*
X106640476Y-55218095D01*
X106830952Y-55265714D01*
X107211904Y-55265714D01*
X107307142Y-55218095D01*
X107354761Y-55170476D01*
X107402380Y-55075238D01*
X107402380Y-54884761D01*
X107354761Y-54789523D01*
X107307142Y-54741904D01*
X107211904Y-54694285D01*
X106973809Y-54694285D01*
X106878571Y-54741904D01*
X106830952Y-54789523D01*
X106783333Y-54884761D01*
X106783333Y-55075238D01*
X106830952Y-55170476D01*
X106878571Y-55218095D01*
X106973809Y-55265714D01*
X89702380Y-54116666D02*
X89226190Y-54450000D01*
X89702380Y-54688095D02*
X88702380Y-54688095D01*
X88702380Y-54307142D01*
X88750000Y-54211904D01*
X88797619Y-54164285D01*
X88892857Y-54116666D01*
X89035714Y-54116666D01*
X89130952Y-54164285D01*
X89178571Y-54211904D01*
X89226190Y-54307142D01*
X89226190Y-54688095D01*
X88702380Y-53211904D02*
X88702380Y-53688095D01*
X89178571Y-53735714D01*
X89130952Y-53688095D01*
X89083333Y-53592857D01*
X89083333Y-53354761D01*
X89130952Y-53259523D01*
X89178571Y-53211904D01*
X89273809Y-53164285D01*
X89511904Y-53164285D01*
X89607142Y-53211904D01*
X89654761Y-53259523D01*
X89702380Y-53354761D01*
X89702380Y-53592857D01*
X89654761Y-53688095D01*
X89607142Y-53735714D01*
X99184761Y-57937619D02*
X99089523Y-57890000D01*
X98994285Y-57794761D01*
X98851428Y-57651904D01*
X98756190Y-57604285D01*
X98660952Y-57604285D01*
X98708571Y-57842380D02*
X98613333Y-57794761D01*
X98518095Y-57699523D01*
X98470476Y-57509047D01*
X98470476Y-57175714D01*
X98518095Y-56985238D01*
X98613333Y-56890000D01*
X98708571Y-56842380D01*
X98899047Y-56842380D01*
X98994285Y-56890000D01*
X99089523Y-56985238D01*
X99137142Y-57175714D01*
X99137142Y-57509047D01*
X99089523Y-57699523D01*
X98994285Y-57794761D01*
X98899047Y-57842380D01*
X98708571Y-57842380D01*
X100089523Y-57842380D02*
X99518095Y-57842380D01*
X99803809Y-57842380D02*
X99803809Y-56842380D01*
X99708571Y-56985238D01*
X99613333Y-57080476D01*
X99518095Y-57128095D01*
X82393333Y-48212380D02*
X82060000Y-47736190D01*
X81821904Y-48212380D02*
X81821904Y-47212380D01*
X82202857Y-47212380D01*
X82298095Y-47260000D01*
X82345714Y-47307619D01*
X82393333Y-47402857D01*
X82393333Y-47545714D01*
X82345714Y-47640952D01*
X82298095Y-47688571D01*
X82202857Y-47736190D01*
X81821904Y-47736190D01*
X82726666Y-47212380D02*
X83393333Y-47212380D01*
X82964761Y-48212380D01*
X92187619Y-60135238D02*
X92140000Y-60230476D01*
X92044761Y-60325714D01*
X91901904Y-60468571D01*
X91854285Y-60563809D01*
X91854285Y-60659047D01*
X92092380Y-60611428D02*
X92044761Y-60706666D01*
X91949523Y-60801904D01*
X91759047Y-60849523D01*
X91425714Y-60849523D01*
X91235238Y-60801904D01*
X91140000Y-60706666D01*
X91092380Y-60611428D01*
X91092380Y-60420952D01*
X91140000Y-60325714D01*
X91235238Y-60230476D01*
X91425714Y-60182857D01*
X91759047Y-60182857D01*
X91949523Y-60230476D01*
X92044761Y-60325714D01*
X92092380Y-60420952D01*
X92092380Y-60611428D01*
X91187619Y-59801904D02*
X91140000Y-59754285D01*
X91092380Y-59659047D01*
X91092380Y-59420952D01*
X91140000Y-59325714D01*
X91187619Y-59278095D01*
X91282857Y-59230476D01*
X91378095Y-59230476D01*
X91520952Y-59278095D01*
X92092380Y-59849523D01*
X92092380Y-59230476D01*
X81281904Y-58962380D02*
X81281904Y-57962380D01*
X81520000Y-57962380D01*
X81662857Y-58010000D01*
X81758095Y-58105238D01*
X81805714Y-58200476D01*
X81853333Y-58390952D01*
X81853333Y-58533809D01*
X81805714Y-58724285D01*
X81758095Y-58819523D01*
X81662857Y-58914761D01*
X81520000Y-58962380D01*
X81281904Y-58962380D01*
X82186666Y-57962380D02*
X82805714Y-57962380D01*
X82472380Y-58343333D01*
X82615238Y-58343333D01*
X82710476Y-58390952D01*
X82758095Y-58438571D01*
X82805714Y-58533809D01*
X82805714Y-58771904D01*
X82758095Y-58867142D01*
X82710476Y-58914761D01*
X82615238Y-58962380D01*
X82329523Y-58962380D01*
X82234285Y-58914761D01*
X82186666Y-58867142D01*
X80777142Y-81446666D02*
X80824761Y-81494285D01*
X80872380Y-81637142D01*
X80872380Y-81732380D01*
X80824761Y-81875238D01*
X80729523Y-81970476D01*
X80634285Y-82018095D01*
X80443809Y-82065714D01*
X80300952Y-82065714D01*
X80110476Y-82018095D01*
X80015238Y-81970476D01*
X79920000Y-81875238D01*
X79872380Y-81732380D01*
X79872380Y-81637142D01*
X79920000Y-81494285D01*
X79967619Y-81446666D01*
X80205714Y-80589523D02*
X80872380Y-80589523D01*
X79824761Y-80827619D02*
X80539047Y-81065714D01*
X80539047Y-80446666D01*
X99718095Y-37922380D02*
X99718095Y-38731904D01*
X99765714Y-38827142D01*
X99813333Y-38874761D01*
X99908571Y-38922380D01*
X100099047Y-38922380D01*
X100194285Y-38874761D01*
X100241904Y-38827142D01*
X100289523Y-38731904D01*
X100289523Y-37922380D01*
X100718095Y-38017619D02*
X100765714Y-37970000D01*
X100860952Y-37922380D01*
X101099047Y-37922380D01*
X101194285Y-37970000D01*
X101241904Y-38017619D01*
X101289523Y-38112857D01*
X101289523Y-38208095D01*
X101241904Y-38350952D01*
X100670476Y-38922380D01*
X101289523Y-38922380D01*
X87263333Y-44567142D02*
X87215714Y-44614761D01*
X87072857Y-44662380D01*
X86977619Y-44662380D01*
X86834761Y-44614761D01*
X86739523Y-44519523D01*
X86691904Y-44424285D01*
X86644285Y-44233809D01*
X86644285Y-44090952D01*
X86691904Y-43900476D01*
X86739523Y-43805238D01*
X86834761Y-43710000D01*
X86977619Y-43662380D01*
X87072857Y-43662380D01*
X87215714Y-43710000D01*
X87263333Y-43757619D01*
X87739523Y-44662380D02*
X87930000Y-44662380D01*
X88025238Y-44614761D01*
X88072857Y-44567142D01*
X88168095Y-44424285D01*
X88215714Y-44233809D01*
X88215714Y-43852857D01*
X88168095Y-43757619D01*
X88120476Y-43710000D01*
X88025238Y-43662380D01*
X87834761Y-43662380D01*
X87739523Y-43710000D01*
X87691904Y-43757619D01*
X87644285Y-43852857D01*
X87644285Y-44090952D01*
X87691904Y-44186190D01*
X87739523Y-44233809D01*
X87834761Y-44281428D01*
X88025238Y-44281428D01*
X88120476Y-44233809D01*
X88168095Y-44186190D01*
X88215714Y-44090952D01*
X88862380Y-54056666D02*
X88386190Y-54390000D01*
X88862380Y-54628095D02*
X87862380Y-54628095D01*
X87862380Y-54247142D01*
X87910000Y-54151904D01*
X87957619Y-54104285D01*
X88052857Y-54056666D01*
X88195714Y-54056666D01*
X88290952Y-54104285D01*
X88338571Y-54151904D01*
X88386190Y-54247142D01*
X88386190Y-54628095D01*
X87862380Y-53199523D02*
X87862380Y-53390000D01*
X87910000Y-53485238D01*
X87957619Y-53532857D01*
X88100476Y-53628095D01*
X88290952Y-53675714D01*
X88671904Y-53675714D01*
X88767142Y-53628095D01*
X88814761Y-53580476D01*
X88862380Y-53485238D01*
X88862380Y-53294761D01*
X88814761Y-53199523D01*
X88767142Y-53151904D01*
X88671904Y-53104285D01*
X88433809Y-53104285D01*
X88338571Y-53151904D01*
X88290952Y-53199523D01*
X88243333Y-53294761D01*
X88243333Y-53485238D01*
X88290952Y-53580476D01*
X88338571Y-53628095D01*
X88433809Y-53675714D01*
X80002380Y-57213333D02*
X80716666Y-57213333D01*
X80859523Y-57260952D01*
X80954761Y-57356190D01*
X81002380Y-57499047D01*
X81002380Y-57594285D01*
X81002380Y-56213333D02*
X81002380Y-56784761D01*
X81002380Y-56499047D02*
X80002380Y-56499047D01*
X80145238Y-56594285D01*
X80240476Y-56689523D01*
X80288095Y-56784761D01*
X120792380Y-41876666D02*
X120316190Y-42210000D01*
X120792380Y-42448095D02*
X119792380Y-42448095D01*
X119792380Y-42067142D01*
X119840000Y-41971904D01*
X119887619Y-41924285D01*
X119982857Y-41876666D01*
X120125714Y-41876666D01*
X120220952Y-41924285D01*
X120268571Y-41971904D01*
X120316190Y-42067142D01*
X120316190Y-42448095D01*
X120792380Y-40924285D02*
X120792380Y-41495714D01*
X120792380Y-41210000D02*
X119792380Y-41210000D01*
X119935238Y-41305238D01*
X120030476Y-41400476D01*
X120078095Y-41495714D01*
X81299404Y-57872380D02*
X81299404Y-56872380D01*
X81537500Y-56872380D01*
X81680357Y-56920000D01*
X81775595Y-57015238D01*
X81823214Y-57110476D01*
X81870833Y-57300952D01*
X81870833Y-57443809D01*
X81823214Y-57634285D01*
X81775595Y-57729523D01*
X81680357Y-57824761D01*
X81537500Y-57872380D01*
X81299404Y-57872380D01*
X82727976Y-57205714D02*
X82727976Y-57872380D01*
X82489880Y-56824761D02*
X82251785Y-57539047D01*
X82870833Y-57539047D01*
X89117142Y-41136666D02*
X89164761Y-41184285D01*
X89212380Y-41327142D01*
X89212380Y-41422380D01*
X89164761Y-41565238D01*
X89069523Y-41660476D01*
X88974285Y-41708095D01*
X88783809Y-41755714D01*
X88640952Y-41755714D01*
X88450476Y-41708095D01*
X88355238Y-41660476D01*
X88260000Y-41565238D01*
X88212380Y-41422380D01*
X88212380Y-41327142D01*
X88260000Y-41184285D01*
X88307619Y-41136666D01*
X88212380Y-40231904D02*
X88212380Y-40708095D01*
X88688571Y-40755714D01*
X88640952Y-40708095D01*
X88593333Y-40612857D01*
X88593333Y-40374761D01*
X88640952Y-40279523D01*
X88688571Y-40231904D01*
X88783809Y-40184285D01*
X89021904Y-40184285D01*
X89117142Y-40231904D01*
X89164761Y-40279523D01*
X89212380Y-40374761D01*
X89212380Y-40612857D01*
X89164761Y-40708095D01*
X89117142Y-40755714D01*
X119213333Y-59467142D02*
X119165714Y-59514761D01*
X119022857Y-59562380D01*
X118927619Y-59562380D01*
X118784761Y-59514761D01*
X118689523Y-59419523D01*
X118641904Y-59324285D01*
X118594285Y-59133809D01*
X118594285Y-58990952D01*
X118641904Y-58800476D01*
X118689523Y-58705238D01*
X118784761Y-58610000D01*
X118927619Y-58562380D01*
X119022857Y-58562380D01*
X119165714Y-58610000D01*
X119213333Y-58657619D01*
X119784761Y-58990952D02*
X119689523Y-58943333D01*
X119641904Y-58895714D01*
X119594285Y-58800476D01*
X119594285Y-58752857D01*
X119641904Y-58657619D01*
X119689523Y-58610000D01*
X119784761Y-58562380D01*
X119975238Y-58562380D01*
X120070476Y-58610000D01*
X120118095Y-58657619D01*
X120165714Y-58752857D01*
X120165714Y-58800476D01*
X120118095Y-58895714D01*
X120070476Y-58943333D01*
X119975238Y-58990952D01*
X119784761Y-58990952D01*
X119689523Y-59038571D01*
X119641904Y-59086190D01*
X119594285Y-59181428D01*
X119594285Y-59371904D01*
X119641904Y-59467142D01*
X119689523Y-59514761D01*
X119784761Y-59562380D01*
X119975238Y-59562380D01*
X120070476Y-59514761D01*
X120118095Y-59467142D01*
X120165714Y-59371904D01*
X120165714Y-59181428D01*
X120118095Y-59086190D01*
X120070476Y-59038571D01*
X119975238Y-58990952D01*
X122163333Y-66337142D02*
X122115714Y-66384761D01*
X121972857Y-66432380D01*
X121877619Y-66432380D01*
X121734761Y-66384761D01*
X121639523Y-66289523D01*
X121591904Y-66194285D01*
X121544285Y-66003809D01*
X121544285Y-65860952D01*
X121591904Y-65670476D01*
X121639523Y-65575238D01*
X121734761Y-65480000D01*
X121877619Y-65432380D01*
X121972857Y-65432380D01*
X122115714Y-65480000D01*
X122163333Y-65527619D01*
X122496666Y-65432380D02*
X123163333Y-65432380D01*
X122734761Y-66432380D01*
D13*
X130590000Y-58275000D02*
X131590000Y-58275000D01*
X148830000Y-58275000D02*
X147830000Y-58275000D01*
X148830000Y-57495000D02*
X148830000Y-58275000D01*
X130590000Y-57495000D02*
X130590000Y-58275000D01*
X124232936Y-61695000D02*
X124687064Y-61695000D01*
X124232936Y-60225000D02*
X124687064Y-60225000D01*
X81352500Y-54270000D02*
X81352500Y-55070000D01*
X82652500Y-54270000D02*
X81352500Y-54270000D01*
X82652500Y-55070000D02*
X81352500Y-55070000D01*
X140435000Y-81018748D02*
X140435000Y-81541252D01*
X138965000Y-81018748D02*
X138965000Y-81541252D01*
X76900000Y-48500000D02*
X76900000Y-51050000D01*
X78500000Y-48500000D02*
X78500000Y-51050000D01*
X78500000Y-48500000D02*
X76900000Y-48500000D01*
X96352936Y-55840000D02*
X97807064Y-55840000D01*
X96352936Y-54020000D02*
X97807064Y-54020000D01*
X82250000Y-40080000D02*
X82250000Y-41340000D01*
X78490000Y-46900000D02*
X82250000Y-46900000D01*
X76240000Y-40080000D02*
X82250000Y-40080000D01*
X82250000Y-46900000D02*
X82250000Y-45640000D01*
X98325000Y-81018748D02*
X98325000Y-81541252D01*
X99795000Y-81018748D02*
X99795000Y-81541252D01*
X120115000Y-81018748D02*
X120115000Y-81541252D01*
X118645000Y-81018748D02*
X118645000Y-81541252D01*
X90025000Y-48375000D02*
X86140000Y-48375000D01*
X90025000Y-50645000D02*
X90025000Y-48375000D01*
X86140000Y-50645000D02*
X90025000Y-50645000D01*
X113572936Y-65040000D02*
X115027064Y-65040000D01*
X113572936Y-63220000D02*
X115027064Y-63220000D01*
X86740000Y-41701252D02*
X86740000Y-40278748D01*
X88560000Y-41701252D02*
X88560000Y-40278748D01*
X107895000Y-55741252D02*
X107895000Y-55218748D01*
X109365000Y-55741252D02*
X109365000Y-55218748D01*
X86520000Y-53222936D02*
X86520000Y-54677064D01*
X88340000Y-53222936D02*
X88340000Y-54677064D01*
X99280000Y-61350000D02*
X98630000Y-61350000D01*
X99280000Y-61350000D02*
X99930000Y-61350000D01*
X99280000Y-58230000D02*
X97605000Y-58230000D01*
X99280000Y-58230000D02*
X99930000Y-58230000D01*
X82332936Y-50145000D02*
X82787064Y-50145000D01*
X82332936Y-48675000D02*
X82787064Y-48675000D01*
X92480000Y-60040000D02*
X92480000Y-61715000D01*
X95600000Y-60040000D02*
X95600000Y-60690000D01*
X92480000Y-60040000D02*
X92480000Y-59390000D01*
X95600000Y-60040000D02*
X95600000Y-59390000D01*
X81520000Y-56910000D02*
X82820000Y-56910000D01*
X82820000Y-57710000D02*
X82820000Y-56910000D01*
X81520000Y-57710000D02*
X82820000Y-57710000D01*
X79475000Y-81018748D02*
X79475000Y-81541252D01*
X78005000Y-81018748D02*
X78005000Y-81541252D01*
D12*
X97605000Y-39970000D02*
X96005000Y-39970000D01*
X103355000Y-50045000D02*
X103355000Y-49395000D01*
X97605000Y-39395000D02*
X103355000Y-39395000D01*
X97605000Y-50045000D02*
X97605000Y-49395000D01*
X97605000Y-39395000D02*
X97605000Y-39970000D01*
X103355000Y-39395000D02*
X103355000Y-40045000D01*
X97605000Y-50045000D02*
X103355000Y-50045000D01*
D13*
X86718748Y-46970000D02*
X88141252Y-46970000D01*
X86718748Y-45150000D02*
X88141252Y-45150000D01*
X89320000Y-54617064D02*
X89320000Y-53162936D01*
X91140000Y-54617064D02*
X91140000Y-53162936D01*
X79200000Y-52980000D02*
X79200000Y-53430000D01*
X77350000Y-60780000D02*
X79200000Y-60780000D01*
X74800000Y-60780000D02*
X75050000Y-60780000D01*
X79750000Y-55180000D02*
X79300000Y-55180000D01*
X79200000Y-60780000D02*
X79200000Y-60330000D01*
X77350000Y-52980000D02*
X79200000Y-52980000D01*
X79750000Y-55180000D02*
X79750000Y-55630000D01*
X74800000Y-52980000D02*
X75050000Y-52980000D01*
X117610000Y-40982936D02*
X117610000Y-42437064D01*
X119430000Y-40982936D02*
X119430000Y-42437064D01*
X81537500Y-55820000D02*
X82837500Y-55820000D01*
X81537500Y-56620000D02*
X82837500Y-56620000D01*
X82837500Y-56620000D02*
X82837500Y-55820000D01*
X89700000Y-41681252D02*
X89700000Y-40258748D01*
X91520000Y-41681252D02*
X91520000Y-40258748D01*
X118668748Y-60050000D02*
X120091252Y-60050000D01*
X118668748Y-61870000D02*
X120091252Y-61870000D01*
X122591252Y-65035000D02*
X122068748Y-65035000D01*
X122591252Y-63565000D02*
X122068748Y-63565000D01*
%LPC*%
D14*
X131210000Y-40140000D03*
X131210000Y-41410000D03*
X131210000Y-42680000D03*
X131210000Y-43950000D03*
X131210000Y-45220000D03*
X131210000Y-46490000D03*
X131210000Y-47760000D03*
X131210000Y-49030000D03*
X131210000Y-50300000D03*
X131210000Y-51570000D03*
X131210000Y-52840000D03*
X131210000Y-54110000D03*
X131210000Y-55380000D03*
X131210000Y-56650000D03*
D15*
X133995000Y-57650000D03*
X135265000Y-57650000D03*
X136535000Y-57650000D03*
X137805000Y-57650000D03*
X139075000Y-57650000D03*
X140345000Y-57650000D03*
X141615000Y-57650000D03*
X142885000Y-57650000D03*
X144155000Y-57650000D03*
X145425000Y-57650000D03*
D14*
X148210000Y-56650000D03*
X148210000Y-55380000D03*
X148210000Y-54110000D03*
X148210000Y-52840000D03*
X148210000Y-51570000D03*
X148210000Y-50300000D03*
X148210000Y-49030000D03*
X148210000Y-47760000D03*
X148210000Y-46490000D03*
X148210000Y-45220000D03*
X148210000Y-43950000D03*
X148210000Y-42680000D03*
X148210000Y-41410000D03*
X148210000Y-40140000D03*
D16*
X138710000Y-47640000D03*
D17*
X123547500Y-60960000D03*
X125372500Y-60960000D03*
D18*
X153845000Y-63755000D03*
X156385000Y-63755000D03*
X153845000Y-61215000D03*
X156425000Y-61215000D03*
X153845000Y-58675000D03*
X156425000Y-58675000D03*
X153845000Y-56135000D03*
X156385000Y-56135000D03*
X153845000Y-53595000D03*
X156425000Y-53595000D03*
X153845000Y-51055000D03*
X156425000Y-51055000D03*
X153845000Y-48515000D03*
X156385000Y-48515000D03*
X153845000Y-45975000D03*
X156385000Y-45975000D03*
D19*
X81732500Y-54670000D03*
X82572500Y-54670000D03*
D20*
X139700000Y-80330000D03*
X139700000Y-82230000D03*
D21*
X77700000Y-49050000D03*
X77700000Y-50950000D03*
D22*
X95617500Y-54930000D03*
X98542500Y-54930000D03*
D23*
X77190000Y-41190000D03*
X77190000Y-43490000D03*
D24*
X83490000Y-43490000D03*
D23*
X77190000Y-45790000D03*
D20*
X99060000Y-80330000D03*
X99060000Y-82230000D03*
X119380000Y-80330000D03*
X119380000Y-82230000D03*
D25*
X89140000Y-49510000D03*
X86340000Y-49510000D03*
D22*
X112837500Y-64130000D03*
X115762500Y-64130000D03*
D26*
X87650000Y-42465000D03*
X87650000Y-39515000D03*
D27*
X108630000Y-56430000D03*
X108630000Y-54530000D03*
D28*
X87430000Y-52487500D03*
X87430000Y-55412500D03*
D29*
X98342500Y-58840000D03*
X98342500Y-60740000D03*
X100217500Y-59790000D03*
D17*
X81647500Y-49410000D03*
X83472500Y-49410000D03*
D30*
X93090000Y-60977500D03*
X94990000Y-60977500D03*
X94040000Y-59102500D03*
D19*
X82440000Y-57310000D03*
X81600000Y-57310000D03*
D20*
X78740000Y-80330000D03*
X78740000Y-82230000D03*
D31*
X96880000Y-40495000D03*
X96880000Y-41145000D03*
X96880000Y-41795000D03*
X96880000Y-42445000D03*
X96880000Y-43095000D03*
X96880000Y-43745000D03*
X96880000Y-44395000D03*
X96880000Y-45045000D03*
X96880000Y-45695000D03*
X96880000Y-46345000D03*
X96880000Y-46995000D03*
X96880000Y-47645000D03*
X96880000Y-48295000D03*
X96880000Y-48945000D03*
X104080000Y-48945000D03*
X104080000Y-48295000D03*
X104080000Y-47645000D03*
X104080000Y-46995000D03*
X104080000Y-46345000D03*
X104080000Y-45695000D03*
X104080000Y-45045000D03*
X104080000Y-44395000D03*
X104080000Y-43745000D03*
X104080000Y-43095000D03*
X104080000Y-42445000D03*
X104080000Y-41795000D03*
X104080000Y-41145000D03*
X104080000Y-40495000D03*
D32*
X85955000Y-46060000D03*
X88905000Y-46060000D03*
D33*
X90230000Y-55352500D03*
X90230000Y-52427500D03*
D34*
X78900000Y-55580000D03*
X78900000Y-56230000D03*
X78900000Y-56880000D03*
X78900000Y-57530000D03*
X78900000Y-58180000D03*
D35*
X78900000Y-59380000D03*
D36*
X76200000Y-53380000D03*
D35*
X78900000Y-54380000D03*
D37*
X76200000Y-57880000D03*
D38*
X76200000Y-59780000D03*
X76200000Y-53980000D03*
D37*
X76200000Y-55880000D03*
D36*
X76200000Y-60380000D03*
D28*
X118520000Y-40247500D03*
X118520000Y-43172500D03*
D19*
X82457500Y-56220000D03*
X81617500Y-56220000D03*
D26*
X90610000Y-42445000D03*
X90610000Y-39495000D03*
D32*
X117905000Y-60960000D03*
X120855000Y-60960000D03*
D39*
X123280000Y-64300000D03*
X121380000Y-64300000D03*
D40*
X104140000Y-84795000D03*
D41*
X101600000Y-79715000D03*
X107950000Y-82255000D03*
D40*
X83820000Y-84795000D03*
D41*
X81280000Y-79715000D03*
X87630000Y-82255000D03*
D40*
X124460000Y-84795000D03*
D41*
X121920000Y-79715000D03*
X128270000Y-82255000D03*
D40*
X144780000Y-84795000D03*
D41*
X142240000Y-79715000D03*
X148590000Y-82255000D03*
M02*
