M48
; DRILL file {KiCad (6.0.7)} date Fri Sep 30 22:22:35 2022
; FORMAT={-:-/ absolute / metric / decimal}
; #@! TF.CreationDate,2022-09-30T22:22:35-04:00
; #@! TF.GenerationSoftware,Kicad,Pcbnew,(6.0.7)
; #@! TF.FileFunction,Plated,1,2,PTH
FMAT,2
METRIC
; #@! TA.AperFunction,Plated,PTH,ViaDrill
T1C0.400
; #@! TA.AperFunction,Plated,PTH,ComponentDrill
T2C0.600
; #@! TA.AperFunction,Plated,PTH,ComponentDrill
T3C0.850
; #@! TA.AperFunction,Plated,PTH,ComponentDrill
T4C1.100
; #@! TA.AperFunction,Plated,PTH,ComponentDrill
T5C1.500
%
G90
G05
T1
X89.81Y-60.98
X92.62Y-41.57
X93.9Y-53.52
X94.04Y-39.64
X94.05Y-41.13
X94.68Y-44.9
X94.72Y-63.43
X96.79Y-57.82
X98.57Y-62.57
X100.56Y-42.85
X100.87Y-56.47
X104.13Y-66.55
X105.33Y-56.42
X108.32Y-64.32
X113.14Y-40.52
X123.547Y-60.96
X123.64Y-55.79
X124.64Y-41.24
X126.33Y-58.544
X126.96Y-60.28
X126.99Y-71.66
X127.72Y-59.36
X128.14Y-72.28
X129.59Y-70.92
X141.2Y-55.32
X142.87Y-45.07
X148.2Y-43.815
X151.19Y-42.77
T3
X78.9Y-54.38
X78.9Y-59.38
T4
X153.845Y-45.975
X153.845Y-48.515
X153.845Y-51.055
X153.845Y-53.595
X153.845Y-56.135
X153.845Y-58.675
X153.845Y-61.215
X153.845Y-63.755
X156.385Y-45.975
X156.385Y-48.515
X156.385Y-56.135
X156.385Y-63.755
X156.425Y-51.055
X156.425Y-53.595
X156.425Y-58.675
X156.425Y-61.215
T5
X81.28Y-79.715
X87.63Y-82.255
X101.6Y-79.715
X107.95Y-82.255
X121.92Y-79.715
X128.27Y-82.255
X142.24Y-79.715
X148.59Y-82.255
T2
X75.85Y-53.38G85X76.55Y-53.38
G05
X76.55Y-60.38G85X75.85Y-60.38
G05
T0
M30
